<svg viewBox="0 0 500 500" xmlns="http://www.w3.org/2000/svg"><g fill="none" stroke-width="2"><path d="m76.82 131.54c-53.81 77.01-47.08 183.25 13.74 254.24 44.19 51.57 108.01 77.34 175.49 72.6 81.95-5.75 153.86-61.24 181.33-138.42 25.81-72.53 9.26-154.84-42.93-211.52q-47.96-52.1-118.06-64.94c-14.95-2.74-30.43-3.15-45.71-2.76-66.06 1.71-126.43 37.25-163.86 90.8" stroke="#9c9a9b"/><path d="m131.22 49.16c-74.43 44.57-118.6 124.76-114.12 212.27 4.02 78.5 46.7 148.74 113.7 188.67q1.85 1.1.11-.17c-132.96-96.55-133.52-304.32.41-400.63q1.7-1.22-.1-.14" stroke="#9c9a9b"/><path d="m467.99 332.22c39.89-105.28-2-226.01-99.89-283.31q-.64-.37-.04.06c134.04 95.84 134.09 304.56.05 401.31q-.05.04-.04.08 0 .03.01.06.01.09.09.04c45.69-27.44 80.94-68.42 99.82-118.24" stroke="#9c9a9b"/><path d="m441.5 245.79a191.7 191.7 0 0 0 -191.7-191.7 191.7 191.7 0 0 0 -191.7 191.7 191.7 191.7 0 0 0 191.7 191.7 191.7 191.7 0 0 0 191.7-191.7" stroke="#9c9a9b"/><path d="m158.05 311.69q-4.23-.21-6.82 2.67a.66.65-54.2 0 0 .16 1.01c5.97 3.39 16.27 4.74 22.79 5.46q72.22 7.98 144.42.64c5.29-.54 25.1-2.7 27.94-5.91q1.04-1.19-.26-2.08-2.76-1.91-5.29-1.82" stroke="#cdcbcd"/><path d="m340.99 311.66-.01-9.11a2.07 2.06-.1 0 0 -2.08-2.06l-21.95.2a.33.33 0 0 1 -.25-.54c5.25-6.23.78-13.83-5.33-17.33a.81.8-73.1 0 1 -.4-.76q.51-6.91 1-13.81c.49-7.11-2.74-9.23-9.44-9.24q-10.14-.02-20.33-.01a1.4 1.37 67.5 0 1 -.99-.42q-3.11-3.21-7.31-4.73-1.03-.37.02-.69c8.71-2.71 18.68-7.19 21.16-16.3q.13-.49.64-.52c14.9-.81 22.94-21.84 9.71-30.19q-.41-.27-.25-.73 1.89-5.55 3.59-11.17.21-.69.79-1.1.39-.27.56-.72c7-17.67 4-35.34-11.8-46.93a.31.31 0 0 1 .24-.56l3.69.6a1.28 1.28 0 0 0 1.06-2.22c-7.79-6.99-16.58-10.58-26.7-13.44a.55.55 0 0 1 -.23-.93q4.36-4.21 10.48-4.94.81-.1 1.21-.34 1.41-.83-.04-2.32a1.73 1.62 76.1 0 0 -.65-.42c-17.87-6.33-37.46-5.14-55.2.81q-.94.31-.41-.53l3.76-6.06a1.27 1.27 0 0 0 -1.27-1.92c-11.32 1.74-24.27 14.63-30 23.93q-.26.43-.76.53c-6.08 1.24-6.99-9.49-8.93-13.04a.75.75 0 0 0 -1.29-.03c-2.89 4.67-.62 19.17 1.51 24.11q.96 2.23-1.3 1.34c-9.46-3.72-11.46-11.66-11.81-20.82a1.41 1.41 0 0 0 -2.71-.49c-5.45 13.07-6.42 32.59 2.24 44.79q.25.36-.19.34-2.69-.12-3.58-1.1-1.31-1.46-2-1.19a2.28 2.28 0 0 0 -1.26 3.08q2.83 6.19 6.54 11.16 1.53 2.06 2.18 4.31 2.25 7.77 5.23 15.35.19.49-.24.78c-12.81 8.68-4.86 29.95 10.33 29.97a.66.65-6.7 0 1 .64.5c2.21 9.4 13.86 13.9 22.9 16.39a.36.35-45.9 0 1 .01.68q-4.44 1.4-7.48 4.9a.88.87 20.3 0 1 -.66.3c-5.06-.04-20.44-1.27-24.2 1.19-4.74 3.11-2.63 13.38-1.4 20.6q.09.53-.32.88c-4.54 3.84-8.33 6.94-8.04 13.51.08 1.65.74 3.38 2.02 4.34a.59.59 0 0 1 -.35 1.07l-21.97-.07a1.34 1.34 0 0 0 -1.34 1.34l.02 9.81" stroke="#808080"/><path d="m340.99 311.66q.3 2.03-.66 3.28-.23.31-.62.31h-180.49a.97.96 75 0 1 -.84-.49q-.71-1.23-.33-3.07" stroke="#4e4b4d"/><path d="m166.68 366.15c6.69 13.34 23.3 15.59 34.82 7.36q.44-.31.79.1c5 5.91 13.08 5.03 19.53 1.89q.43-.22.43-.7v-2.8q0-.75.75-.75h4.24a.69.69 0 0 1 .63.41c3.14 7.35 11.75 7.3 18.07 4.59q.45-.2.91 0c9.3 3.98 21.92 2.42 28.5-5.86q.34-.43.5.09c2.95 9.21 13.77 8.37 21.03 5.09q.36-.17.36-.57l-.05-4.5q-.01-1.66.53-.09c2.41 6.96 8.39 7.1 14.59 7.34 4.92.2 11.13.48 15.66-1.52q.46-.2.91.01c5.01 2.31 11.14 1.72 16.19-.01a1.14 1.13-38.5 0 1 .93.1c7.95 4.66 16.15-1.14 17.95-9.04q.12-.55-.18-1.02l-3.79-5.83q-.24-.38-.04-.78 6.57-12.99-2.88-21.68c-6.71-6.18-18.18-5.67-26.25-2.94q-.75.25-1.23.11-.56-.17-.92-.73-.27-.42-.78-.42c-7.31 0-17.11-1.04-24.08.83q-.5.13-.93-.16l-.96-.64q-.39-.26-.87-.26-12.37-.07-24.73.03-2.16.01-5.02 1.72-.44.26-.91.06-13.21-5.83-25.06 1.87-.59.38-1.16-.03-9.48-6.96-19.7-.62-.45.28-.89 0-10.97-6.79-20.3 1.83-.42.39-.89.04-13.63-10.31-28.58-1.76-.47.26-.79-.17l-1.85-2.55q-.31-.44-.85-.44-6.76-.04-23.6.11c-12.24.12-13.28 12.46-7.01 20.02a1.05 1.03-19.6 0 0 .8.37h3.23q.51 0 .51.51c.02 9.87-2.2 22.46 10.82 22.93q5.52.2 10.8-1.92.39-.15.39-.57v-8.94q0-.97.43-.11" stroke="#fff1e7"/><path d="m206.18 138.29-2.13 3.58a.55.55 0 0 1 -1.02-.25l-.04-.9q-.04-.63-.66-.63c-3.14-.02-6.26-3.44-6.86-5.83q-1.41-5.61-1.41.17 0 4.99 1.87 10.79c.89 2.77 2.81 5.04 4.31 7.71" stroke="#151417"/><path d="m200.24 152.93c-11.87.61-19.74-7.74-20.3-18.84a.36.36 0 0 0 -.71-.06q-3.22 13.06-.93 26.47" stroke="#202227"/><path d="m178.3 160.5q1.37 10.35 9.62 16.22a.32.32 0 0 1 -.17.58q-5.25.35-9.96-1.91-.63-.3-.51.38.24 1.4 1.08 2.24" stroke="#1d1b1b"/><path d="m178.36 178.01q2.3 4.72 5.89 8.22" stroke="#151417"/><path d="m184.25 186.23q2.37 10.3 6.99 19.78" stroke="#202227"/><path d="m191.24 206.01 3.01 1.46q.47.23.44-.29-.88-17.11 9.96-30.32c5.44-6.62 15.91-6.27 23.7-6.93a.38.37-36.4 0 0 .11-.72q-6.07-2.46-8.23-7.68-1.7-4.14.65-.33c5.34 8.64 21.73 7.96 30.39 5.87q1.65-.4.34-1.48-7.51-6.21-16.92-8.68-.16-.04-.06-.17.08-.11.2-.18.13-.07.37-.05c14.64 1.77 26.71 13.62 33.72 25.82a.21.2-58.9 0 0 .38-.1q.64-11.1-3.39-21.45-.05-.15.1-.2.13-.04.27-.09.35-.11.46.25l1.98 6.99a1.33 1.31 5.4 0 0 .69.82c9.58 4.62 14.39 10.15 21.91 17.96q.6.61.72-.23l1.98-13.06q.08-.52.47-.16 7.86 7.28 13.45 16.44.32.53.58-.03 2.99-6.36 2.95-13.53" stroke="#151417"/><path d="m311.47 175.94c.77-15.1-8.54-26.8-22.14-32.4" stroke="#202227"/><path d="m289.33 143.54 5.98-1.02" stroke="#151417"/><path d="m295.31 142.52 3.18.22a.29.28-26 0 0 .18-.52q-11.16-7.71-25.79-10.88" stroke="#202227"/><path d="m272.88 131.34q2.26-6.82 10.56-8.76.72-.17.12-.6-1.35-.97-3.34-1.01" stroke="#151417"/><path d="m280.22 120.97c-17.57-3.89-34.5-2.01-51.43 4.39" stroke="#202227"/><path d="m228.79 125.36q.03-4.26 2.52-7.71" stroke="#151417"/><path d="m231.31 117.65.53-.89q.48-.82-.39-.43-15.87 7.09-25.27 21.96" stroke="#202227"/><path d="m231.31 117.65q-13.89 7.54-21.85 21.06a1.88 1.88 0 0 1 -2.62.64q-.32-.2-.66-1.06" stroke="#35363e"/><path d="m228.79 125.36q-3.4 1.78-7.11 4.05-.15.09-.17.23-.06.35.27.24l10.01-3.49q.48-.17.95.05 1.74.79 3.61.43a.39.39 0 0 0 -.02-.76l-1.08-.15a.41.41 0 0 1 -.06-.8q15.53-4.28 31.56-2.35 1.71.2 6.76-1.64.48-.18.99-.09l5.24.91q.57.1.52-.48l-.04-.54" stroke="#35363e"/><path d="m272.88 131.34q-11.86-1.96-23.7.1-3.7.64-9.39 2.96-.07.02-.04.1.01.04.03.08.05.14.2.1 9.93-2.36 13.52-2.44 20.9-.42 39.7 8.56.96.45 2.11 1.72" stroke="#35363e"/><path d="m289.33 143.54-3.6-.76a.25.25 0 0 0 -.19.46q2.43 1.61 4.83 3.17c11.79 7.67 16.15 17.49 18.85 30.82q.1.5.61.52 1.43.08 1.64-1.81" stroke="#35363e"/><path d="m191.24 206.01-6.99-19.78" stroke="#35363e"/><path d="m178.36 178.01q6.4 1.22 12.16.08.56-.11.19-.54l-6.65-7.73" stroke="#322e32"/><path d="m184.06 169.82q-6.38-11.92-5.26-26.29a.59.59 0 0 1 1.16-.07c2.56 13 13.67 15.07 24.6 11.34q.15-.05.24-.21.23-.37-.2-.29l-2.52.5q-.72.14-.8-.59-.15-1.52-1.04-1.28" stroke="#35363e"/><path d="m184.06 169.82q-2.38-1.49-3.14-4.62-.13-.53-.65-.7-1.19-.37-.73-1.83.16-.5-.18-.91l-1.06-1.26" stroke="#3d3d42"/><path d="m199.28 190.5q-3.37 9.26-1.46 18.49" stroke="#7e6655"/><path d="m197.82 208.99q.15 13.6 3.04 26.54c1.65 7.35 9.02 11.23 16.3 13.47" stroke="#807268"/><path d="m217.16 249q11.47 4.54 24.73 5.43" stroke="#7e6655"/><path d="m241.89 254.43q10.72 1.56 20.86-.83" stroke="#624b3f"/><path d="m262.75 253.6 11.87-3.39" stroke="#7e6655"/><path d="m274.62 250.21c5.62-1.51 16.12-6.26 17.9-12.7q2.9-10.5 3.47-26.93" stroke="#807268"/><path d="m295.99 210.58q2.17-8.91-.8-18.55" stroke="#7e6655"/><path d="m295.19 192.03q-.05-1.44-1.41-3.26a.3.3 0 0 0 -.54.24q.21 1.15-.8 1.68a.71.71 0 0 1 -.88-.17c-5.87-6.78-11.57-13.38-19.49-17.88q-.62-.35-.54.36.8 7.27-.71 14.41a1 .98 78.5 0 1 -.38.59q-.97.72-1.49-.39-5.09-10.89-13.95-19.14a.86.85-33.6 0 0 -.87-.17q-7.98 3.06-12.88 2.5c-7.02-.81-13.98 1.91-21.1 2.43q-6.37.46-8.65 1.43c-6.58 2.79-9.7 10.11-12.22 15.84" stroke="#624b3f"/><path d="m295.19 192.03-2.34 7.28q-.19.6-.67.2l-19.29-16.07a.69.69 0 0 0 -1.11.69l1.66 6.71" stroke="#dfb194"/><path d="m273.44 190.84-6.39 4.61" stroke="#624b3f"/><path d="m267.05 195.45c-10.74-15.91-26.16-24.45-45.42-20.6-12.69 2.54-17.6 9.68-21.66 21.2q-.38 1.05-.44-.07-.12-2.12.46-4.48.25-1.02-.71-1" stroke="#dfb194"/><path d="m280.74 197.72c-4.46-.67-8.2 1.54-11.63 3.93" stroke="#624b3f"/><path d="m267.05 195.45q-1.55 2.34-1.05 4.8.53 2.58 3.11 1.4" stroke="#7e6655"/><path d="m269.11 201.65q.15 1.07-1.38 1.96-.4.24-.4.71.03 1.09-1.06 2.26-3.26 3.5-2.4 9.22" stroke="#dfb194"/><path d="m263.87 215.8-.09 1.94" stroke="#7e6655"/><path d="m263.78 217.74q-.14 2.06.65 3.94" stroke="#9a8170"/><path d="m264.43 221.68c-1.17 1.17-.81 2.63.39 3.68 5.94 5.19 11.96 3.66 19.77 2.21a.83.83 0 0 0 .66-.6l1.36-5.11" stroke="#fde6d5"/><path d="m286.61 221.86c5.85-9.07-1.89-19.08-12.07-18.94" stroke="#7e6655"/><path d="m274.54 202.92 6.2-5.2" stroke="#dfb194"/><path d="m280.74 197.72q2.59.28 5.01 2.45a.68.68 0 0 0 .9 0q1.01-.92.42-2.23a2.51.62 76.2 0 0 -.34-.65q-5.34-7.81-13.29-6.45" stroke="#7e6655"/><path d="m295.99 210.58-4.74 21.49a.76.76 0 0 1 -1.36.28c-2.42-3.33-13.31.3-16.06 2.09a1.78 1.78 0 0 0 .37 3.18q7.45 2.61 14.87-.36.58-.23.37.35-.61 1.7-1.89 2.93-5.54 5.32-12.93 9.67" stroke="#fdd8bd"/><path d="m262.75 253.6q-2.27-.35-4.5-.29-8.14.21-16.36 1.12" stroke="#dfb194"/><path d="m217.16 249q-8.34-5.06-12.98-11.78a.5.49-3.6 0 1 .64-.72q7.34 3.78 15.42 1.87a1.49 1.49 0 0 0 .52-2.66c-3.28-2.35-13.09-6.79-16.68-3.96a1.08 1.08 0 0 1 -1.72-.63l-4.54-22.13" stroke="#fdd8bd"/><path d="m274.54 202.92c-6.25 1.98-8.86 6.72-10.67 12.88" stroke="#624b3f"/><path d="m264.43 221.68c4.92 8.95 17 7.09 17.54-2.87" stroke="#9c9a9b"/><path d="m286.61 221.86q.49-4.21-.38-6.68" stroke="#808080"/><path d="m286.23 215.18c-1.03-7.72-8.85-12.78-15.55-7.76q-.39.29.09.25 4.52-.38 7.83 2.1" stroke="#4e4b4d"/><path d="m278.6 209.77q4.01 4.01 3.37 9.04" stroke="#808080"/><path d="m281.97 218.81-1.38-.31a.59.58 13.4 0 0 -.69.42c-1.99 7.64-11.17 8.29-13.68.97-.45-1.31-1.16-1.94-2.44-2.15" stroke="#1d1b1b"/><path d="m286.23 215.18q-3.9-5.68-7.63-5.41" stroke="#cdcbcd"/><path d="m302.07 206.15q3.2-6.35 4.65-14.22" stroke="#202227"/><path d="m306.72 191.93q-4.2-7.12-10.34-13.63-.53-.56-.65.2l-.95 6.01a1.68 1.63-54.9 0 0 .16 1q5.12 10.12 4.23 21.46-.05.64.52.35l2.38-1.17" stroke="#151417"/><path d="m306.72 191.93q-3.31 7.06-4.65 14.22" stroke="#35363e"/><path d="m190.23 208.31q-3.52.85-4.82 4.28" stroke="#807268"/><path d="m185.41 212.59q-1.39 2.18-1.45 3.67-.64 14.47 13.34 18.09a.73.73 0 0 0 .76-1.16l-.37-.48" stroke="#7e6655"/><path d="m197.69 232.71q.31-1.18-.51-2.25" stroke="#624b3f"/><path d="m197.18 230.46q.36-.66.25-.89" stroke="#1d1b1b"/><path d="m197.43 229.57-1.31-7.98a.77.77 0 0 0 -1.45-.21q-.93 1.93-.95 4.11" stroke="#624b3f"/><path d="m193.72 225.49q-.1 0-.19-.01" stroke="#1d1b1b"/><path d="m193.53 225.48q-.71-2.45.1-5.01a.79.78-66.7 0 0 -.36-.92l-3.14-1.83a.57.57 0 0 0 -.79.22q-.57 1.07-1.69 1.45" stroke="#624b3f"/><path d="m187.65 219.39q1.56-2.49-1.24-3.38-.16-.05-.16-.22 0-.14-.01-.29-.01-.26.24-.18 5.04 1.5 9.05 4.9a.39.39 0 0 0 .64-.34c-.33-3.2-2.34-11.55-5.94-11.57" stroke="#7e6655"/><path d="m187.65 219.39c-1.72 6.02 2.33 14.48 10.04 13.32" stroke="#dfb194"/><path d="m185.41 212.59q3.06-.02 4.82-4.28" stroke="#fdd8bd"/><path d="m193.53 225.48q.22 4.11 3.65 4.98" stroke="#7e655a"/><path d="m197.43 229.57q-3-.81-3.71-4.08" stroke="#7e655a"/><path d="m307.1 216.75q-1.37-.15-1.95.29-.32.24-.33 1.17 0 .62-.09 1.24-.11.7-.54.14l-1.06-1.38a.76.75 54.7 0 0 -1.02-.18l-2.15 1.4a.85.83-19.3 0 0 -.39.79q.4 4.17-.66 8.26a.72.7 81.6 0 1 -.31.43q-2.54 1.52-2.74 4.45-.05.64.59.64 3.18.03 5.66-2.01" stroke="#624b3f"/><path d="m302.11 231.99q7.36-4.63 7.55-13.52c.27-12.46-12.99-13.58-11.52.58q.05.46.43.19 3.44-2.49 7.6-3.41.16-.04.28-.16l.4-.4q.57-.57.62.24.02.44-.37 1.24" stroke="#7e6655"/><path d="m302.11 231.99q6.44-6.53 4.99-15.24" stroke="#dfb194"/><path d="m297.6 220.87-1.24 8.68a.02.02 0 0 0 .02.02l.06.01a4.19 2.06-81.9 0 0 2.63-3.86l.06-.42a4.19 2.06-81.9 0 0 -1.45-4.44h-.06a.02.02 0 0 0 -.02.01" stroke="#624b3f"/><path d="m236.36 256.47-11.36-2.21a1.17 1.16 72.6 0 0 -1.03 1.98c3.56 3.46 7.67 2.9 12.19 2.73a1.26 1.26 0 0 0 .2-2.5" stroke="#202227"/><path d="m270.78 254.46-8.9 1.8a1.34 1.34 0 0 0 -.04 2.62q5.92 1.38 9.84-2.82a.96.96 0 0 0 -.9-1.6" stroke="#202227"/><path d="m219.17 257.81-1.33.55a.23.23 0 0 0 .17.43l.89-.32q.43-.16.87-.01 2.21.78 4.51.43.63-.1.27-.62c-1.07-1.52-3.11-2.97-4.68-.98q-.28.35-.7.52" stroke="#1d1b1b"/><path d="m275.31 256.94q-.55-.63-1.37-.71a1.06 1.04 24.9 0 0 -.82.29l-1.87 1.82q-.78.76.31.71l4.02-.18a.8.8 0 0 0 .68-1.16q-.31-.6-.95-.77" stroke="#1d1b1b"/><path d="m258.9005 257.7573a.51.51 0 0 0 -.5092-.5109l-18.7799-.0328a.51.51 0 0 0 -.5109.5091l-.001.54a.51.51 0 0 0 .5092.5109l18.7799.0328a.51.51 0 0 0 .5109-.5091z" stroke="#624b3f"/><path d="m191.38 291.64.79 9.02" stroke="#2e3237"/><path d="m192.17 300.66c-.78 4.41.82 7.08 5.48 7.08q51.95.02 103.9.01c6.33 0 5.22-5.9 5.61-10.19" stroke="#202227"/><path d="m307.16 297.56q1.34-14.77 2.55-29.53c.28-3.42-.93-6.78-4.71-6.78q-55.5 0-111 .22-5.41.03-5.09 5.54.71 12.16 2.47 24.63" stroke="#808080"/><path d="m307.16 297.56q-.98-.12-.51-.11" stroke="#a0a2a6"/><path d="m306.65 297.45 1.51-30.87a3.41 3.4-88.6 0 0 -3.4-3.58h-111.23a3.17 3.16 88.9 0 0 -3.16 3.29l1.01 25.35" stroke="#aeb1b6"/><path d="m306.65 297.45c-.62.17-.91.33-1.55.25-10.77-1.23-22.87-3.39-33.66-2.52q-39.23 3.13-78.44 6.57-.89.08-.83-1.09" stroke="#4e545d"/><path d="m182.08 294.88q.33-5.08 4.03-8.52.29-.27-.1-.31-.27-.02-.43.21c-2.24 3.36-3.87 4.47-4.12 8.94q-.02.35.33.31l.38-.06a.13.12-19.4 0 0 .1-.19l-.17-.28a.29.24 39.3 0 1 -.02-.1" stroke="#1d1b1b"/><path d="m185.3 298.79q1.05 2.64 3.65 2.94.56.06.52-.5l-.26-3.17" stroke="#624b3f"/><path d="m189.21 298.06-.8-9.8a.55.55 0 0 0 -.94-.35c-2.72 2.76-4.72 7.18-2.17 10.88" stroke="#7e6655"/><path d="m189.21 298.06q-2.4-.46-3.91.73" stroke="#dfb194"/><path d="m313.92 288.06 1.6 2.77q.26.44.34.95l.39 2.46a.27.27 0 0 0 .54-.04q.04-3.72-2.56-6.37a.2.19 8 0 0 -.31.23" stroke="#161516"/><path d="m309.72 297.78-.45 3.69q-.07.61.53.48 2.41-.5 3.76-2.87" stroke="#624b3f"/><path d="m313.56 299.08q2.49-6.29-2.52-11a.44.43-67.2 0 0 -.73.3l-.59 9.4" stroke="#7e6655"/><path d="m313.56 299.08q-1.67-1.73-3.84-1.3" stroke="#dfb194"/><path d="m177.41 303.39q-8.9-.72-17.24.33" stroke="#202227"/><path d="m160.17 303.72.16 8.69q.01.52.54.52l177.23-.11q.6 0 .59-.6l-.07-7.37" stroke="#151417"/><path d="m338.62 304.85q.32-.76.02-1.32-.25-.46-.77-.45l-19.24.33" stroke="#202227"/><path d="m318.63 303.41q-3.53-.18-7.32-.58-2.72-.29-2.53 2.36.04.47-.17.89c-1.35 2.8-3.31 4.17-6.59 4.17q-51.96 0-103.93 0c-4.85 0-7.83-1.49-8.39-6.47q-.06-.51-.57-.56-6.1-.66-11.72.17" stroke="#151417"/><path d="m318.63 303.41 19.99 1.44" stroke="#35363e"/><path d="m160.17 303.72q8.45 1.14 17.24-.33" stroke="#35363e"/><path d="m213.43 197.71 5.38 4.88" stroke="#dfb194"/><path d="m218.81 202.59q-17.17 2.78-11.36 19.72" stroke="#7e6655"/><path d="m207.45 222.31 1.51 4.35q.16.47.64.6 8.34 2.27 11.39 1.79c2.93-.46 11.86-3.53 9.01-7.47" stroke="#fde6d5"/><path d="m230 221.58.59-4.22" stroke="#9a8170"/><path d="m230.59 217.36q1.11-6.14-3.27-11.38-.35-.43-.41-.99-.15-1.6-1.73-2.13-.44-.16-.14-.51l.39-.45" stroke="#dfb194"/><path d="m225.43 201.9q.76.09 1.38-.21.46-.23.57-.74c1.07-4.96-1.98-7.18-5.73-9.25-3.5-1.94-6.72-1.35-10.01.93-1.89 1.32-5.24 4.02-5.16 6.63a.99.99 0 0 0 1.64.72q2.43-2.11 5.31-2.27" stroke="#7e6655"/><path d="m225.43 201.9c-3.78-1.86-7.44-5.02-12-4.19" stroke="#624b3f"/><path d="m230.59 217.36q-.13.2-.25.4" stroke="#7e655a"/><path d="m230.34 217.76c-.7-7.1-4.3-12.97-11.53-15.17" stroke="#624b3f"/><path d="m230.34 217.76q-2.25.59-2.63 3.14a1.76 1.71 69.8 0 1 -.39.88q-5.14 6.24-11.43.79" stroke="#1d1b1b"/><path d="m215.89 222.57q.06-1.57-.86-3.49-.39-.8-.89-.8-.61 0-1.17.98" stroke="#808080"/><path d="m212.97 219.26-.48.26" stroke="#2e3237"/><path d="m212.49 219.52q-1.63-5.33 2.6-9.8" stroke="#808080"/><path d="m215.09 209.72q3.37-2.48 7.97-2.14.76.06.13-.38c-6.29-4.37-14.14-.03-15.07 7.29" stroke="#4e4b4d"/><path d="m208.12 214.49-.67 7.82" stroke="#808080"/><path d="m212.49 219.52q-.17 1.6.53 2.06.5.32.29-.23-.38-1.02-.34-2.09" stroke="#aeb1b6"/><path d="m215.89 222.57q-1.21.4-1.39 1.33-.09.51.29.86c5.35 4.91 11.93 3.07 15.21-3.18" stroke="#9c9a9b"/><path d="m215.09 209.72q-3.46-.13-6.97 4.77" stroke="#cdcbcd"/><path d="m247.54 230.52-.76-.37q-.92-.43-.47.48.54 1.11 1.29.58a.4.4 0 0 0 -.06-.69" stroke="#dfb194"/><path d="m258.89 237.5c-6.49 4.5-14.46 4.5-21.19.55a.58.58 0 0 0 -.87.44l-.07.71q-.04.45.35.68 10.35 6.04 21.1.37 1.36-.72 1.81-1.87a.75.75 0 0 0 -1.13-.88" stroke="#7e6655"/><path d="m225.13 212.84a1.66 1.66 0 0 0 -1.66-1.66 1.66 1.66 0 0 0 -1.66 1.66 1.66 1.66 0 0 0 1.66 1.66 1.66 1.66 0 0 0 1.66-1.66" stroke="#808080"/><path d="m276.51 212.9a1.64 1.64 0 0 0 -1.64-1.64 1.64 1.64 0 0 0 -1.64 1.64 1.64 1.64 0 0 0 1.64 1.64 1.64 1.64 0 0 0 1.64-1.64" stroke="#808080"/><path d="m249.17 278.01a.94.94 0 0 0 1.24 1.29q2.36-1.13 2.61-3.74a.44.44 0 0 0 -.6-.44q-2.2.92-3.25 2.89" stroke="#aeb1b6"/><path d="m244.67 293.15a2.18 2.16-38.1 0 0 2.3.27q2.99-1.45 6 .24a.75.75 0 0 0 .88-.11l3.15-3.03q.51-.49-.03-.94-4.17-3.44-.32-7.12a.54.54 0 0 0 -.03-.81q-3.15-2.59-6.84-.62a1.01 1.01 0 0 1 -.91.02c-4.51-2.14-8.27.42-8.01 5.2q.22 3.97 3.81 6.9" stroke="#aeb1b6"/><g stroke="#95877d"><path d="m202.61 354.19a14.29 14.29 0 0 0 -14.29-14.29h-2.84a14.29 14.29 0 0 0 -14.29 14.29v3.14a14.29 14.29 0 0 0 14.29 14.29h2.84a14.29 14.29 0 0 0 14.29-14.29z"/><path d="m256.23 349.99c-1.97-4.98 8.61-2.53 10.58-1.62q.47.21.84-.15c8.69-8.53-19.14-13.82-20.65-.19-.93 8.41 7.25 9.89 13.1 12.15 1.44.55 2.24 1.85 1.24 3.19-2.09 2.8-8.84.6-11.18-.95q-.39-.25-.82-.09-1.96.73-2.29 2.27c-1.66 7.9 11.64 7.6 16.23 6.47 6.98-1.73 10.39-9.8 4.98-15.11-2.62-2.57-7.55-4.02-11.37-5.34a1.11 1.08 87.9 0 1 -.66-.63"/><path d="m340 362.45a1.63 1.63 0 0 1 3.04-.82q2.04 3.48 4.29 7c2.26 3.54 7.93 3.8 9.51-.54q.2-.56-.15-1.03l-5.62-7.38a.56.55 55.4 0 1 .14-.81q4.06-2.59 4.73-6.85c1.93-12.28-12.84-13.4-20.93-11.48-2.99.71-3.74 1.24-3.76 4.54q-.05 11.06-.05 22.11c0 4.69 4.82 4.25 8.26 3.67q.54-.09.54-.64z"/><path d="m160.25 347.5 5.96-.01a1.37 1.36 16.1 0 0 1.15-.63q1.8-2.81.27-5.95-.2-.42-.68-.42l-22.46.03a1.34 1.32-74.3 0 0 -1.14.65q-1.74 2.95-.14 6.12.1.21.33.21h6.77q.68 0 .68.68.02 9.44.01 18.88c-.01 4.98 4.97 4.51 8.27 3.77a.62.61-6.5 0 0 .48-.6v-22.23q0-.49.5-.5"/><path d="m232.56 351.67a.34.34 0 0 1 .67.1q-.01 7.7.46 15.58c.28 4.71 4.7 4.42 7.95 3.53a.82.8-6.7 0 0 .59-.73q.12-1.97-.14-4.96-1.37-16.11-1.91-21.13c-.49-4.53-7.52-3.94-10.26-2.81q-.42.18-.56.62l-4.31 13.69a.3.3 0 0 1 -.57-.01q-1.53-5.6-3.48-11.26c-1.65-4.79-8.53-4.71-11.74-2.17q-.42.33-.45.86-.62 11.21-1.24 22.42c-.16 2.94-.74 5.11 2.5 5.66q2.74.48 4.86-.08.93-.24.95-1.2l.53-18.32a.24.24 0 0 1 .47-.06q1.49 4.77 3.04 9.52c1.4 4.3 3.66 3.92 7.5 3.4q1.31-.18 1.78-1.59 1.83-5.54 3.36-11.06"/><path d="m291.25 347.5 5.96-.01a1.24 1.24 0 0 0 1-.51q2.04-2.84.41-6.11-.18-.37-.6-.37h-22.46a1.41 1.4 15.6 0 0 -1.2.67q-1.77 2.88-.15 6.03.16.3.49.3h6.67q.63 0 .63.62v20.41a2.57 2.57 0 0 0 2.6 2.57l5.51-.06a.65.65 0 0 0 .64-.65v-22.39q0-.49.5-.5"/><path d="m312.53 347.48c3.7.04 16.62 2.1 12.43-6.45q-.23-.48-.76-.49-7.77-.18-15.53.15c-3.28.14-5.15 1.46-5.17 4.82q-.07 10.6.05 21.35a4.18 4.18 0 0 0 4.18 4.14h16.21a1.13 1.13 0 0 0 .97-.55q1.67-2.79.22-5.81-.18-.39-.61-.39h-11.77q-.75 0-.75-.75v-3.84a.61.6-1 0 1 .59-.6l9.59-.2a1.32 1.3-73.3 0 0 1.04-.57q1.83-2.66.33-5.56-.24-.48-.78-.48h-10.02q-.75 0-.75-.75v-3.49q0-.53.53-.53"/><path d="m186.888 364.9399a9.18 6.92 90.2 0 0 6.952-9.1557 9.18 6.92 90.2 0 0 -6.888-9.2041 9.18 6.92 90.2 0 0 -6.952 9.1557 9.18 6.92 90.2 0 0 6.888 9.2041"/><path d="m340 347.44-.02 6.36a.68.68 0 0 0 .68.68l2.03.01a4.55 3.59.2 0 0 4.56-3.58v-.54a4.55 3.59.2 0 0 -4.54-3.6l-2.03-.01a.68.68 0 0 0 -.68.68"/></g></g><path d="m16.3 177.72c33.14-108.34 136.39-179.99 250.34-171.3 75.91 5.78 144.65 46.79 185.74 111.07 68.28 106.81 42.81 249.69-59.54 325.4q-42.49 31.43-95.85 42.79-18.2 3.88-33.18 4.34c-28.02.86-48.97.03-75.06-6.78q-83.85-21.89-134.75-89.74c-46.09-61.44-60.15-142.37-37.7-215.78zm60.52-46.18c-53.81 77.01-47.08 183.25 13.74 254.24 44.19 51.57 108.01 77.34 175.49 72.6 81.95-5.75 153.86-61.24 181.33-138.42 25.81-72.53 9.26-154.84-42.93-211.52q-47.96-52.1-118.06-64.94c-14.95-2.74-30.43-3.15-45.71-2.76-66.06 1.71-126.43 37.25-163.86 90.8zm54.4-82.38c-74.43 44.57-118.6 124.76-114.12 212.27 4.02 78.5 46.7 148.74 113.7 188.67q1.85 1.1.11-.17c-132.96-96.55-133.52-304.32.41-400.63q1.7-1.22-.1-.14zm336.77 283.06c39.89-105.28-2-226.01-99.89-283.31q-.64-.37-.04.06c134.04 95.84 134.09 304.56.05 401.31q-.05.04-.04.08 0 .03.01.06.01.09.09.04c45.69-27.44 80.94-68.42 99.82-118.24z" fill="#fff"/><path d="m90.56 385.78c-60.82-70.99-67.55-177.23-13.74-254.24 37.43-53.55 97.8-89.09 163.86-90.8 15.28-.39 30.76.02 45.71 2.76q70.1 12.84 118.06 64.94c52.19 56.68 68.74 138.99 42.93 211.52-27.47 77.18-99.38 132.67-181.33 138.42-67.48 4.74-131.3-21.03-175.49-72.6zm350.94-139.99a191.7 191.7 0 0 0 -191.7-191.7 191.7 191.7 0 0 0 -191.7 191.7 191.7 191.7 0 0 0 191.7 191.7 191.7 191.7 0 0 0 191.7-191.7z" fill="#393536"/><path d="m17.1 261.43c-4.48-87.51 39.69-167.7 114.12-212.27q1.8-1.08.1.14c-133.93 96.31-133.37 304.08-.41 400.63q1.74 1.27-.11.17c-67-39.93-109.68-110.17-113.7-188.67z" fill="#393536"/><path d="m368.1 48.91c97.89 57.3 139.78 178.03 99.89 283.31-18.88 49.82-54.13 90.8-99.82 118.24q-.08.05-.09-.04-.01-.03-.01-.06-.01-.04.04-.08c134.04-96.75 133.99-305.47-.05-401.31q-.6-.43.04-.06z" fill="#393536"/><path d="m441.5 245.79a191.7 191.7 0 0 1 -191.7 191.7 191.7 191.7 0 0 1 -191.7-191.7 191.7 191.7 0 0 1 191.7-191.7 191.7 191.7 0 0 1 191.7 191.7zm-283.45 65.9q-4.23-.21-6.82 2.67a.66.65-54.2 0 0 .16 1.01c5.97 3.39 16.27 4.74 22.79 5.46q72.22 7.98 144.42.64c5.29-.54 25.1-2.7 27.94-5.91q1.04-1.19-.26-2.08-2.76-1.91-5.29-1.82l-.01-9.11a2.07 2.06-.1 0 0 -2.08-2.06l-21.95.2a.33.33 0 0 1 -.25-.54c5.25-6.23.78-13.83-5.33-17.33a.81.8-73.1 0 1 -.4-.76q.51-6.91 1-13.81c.49-7.11-2.74-9.23-9.44-9.24q-10.14-.02-20.33-.01a1.4 1.37 67.5 0 1 -.99-.42q-3.11-3.21-7.31-4.73-1.03-.37.02-.69c8.71-2.71 18.68-7.19 21.16-16.3q.13-.49.64-.52c14.9-.81 22.94-21.84 9.71-30.19q-.41-.27-.25-.73 1.89-5.55 3.59-11.17.21-.69.79-1.1.39-.27.56-.72c7-17.67 4-35.34-11.8-46.93a.31.31 0 0 1 .24-.56l3.69.6a1.28 1.28 0 0 0 1.06-2.22c-7.79-6.99-16.58-10.58-26.7-13.44a.55.55 0 0 1 -.23-.93q4.36-4.21 10.48-4.94.81-.1 1.21-.34 1.41-.83-.04-2.32a1.73 1.62 76.1 0 0 -.65-.42c-17.87-6.33-37.46-5.14-55.2.81q-.94.31-.41-.53l3.76-6.06a1.27 1.27 0 0 0 -1.27-1.92c-11.32 1.74-24.27 14.63-30 23.93q-.26.43-.76.53c-6.08 1.24-6.99-9.49-8.93-13.04a.75.75 0 0 0 -1.29-.03c-2.89 4.67-.62 19.17 1.51 24.11q.96 2.23-1.3 1.34c-9.46-3.72-11.46-11.66-11.81-20.82a1.41 1.41 0 0 0 -2.71-.49c-5.45 13.07-6.42 32.59 2.24 44.79q.25.36-.19.34-2.69-.12-3.58-1.1-1.31-1.46-2-1.19a2.28 2.28 0 0 0 -1.26 3.08q2.83 6.19 6.54 11.16 1.53 2.06 2.18 4.31 2.25 7.77 5.23 15.35.19.49-.24.78c-12.81 8.68-4.86 29.95 10.33 29.97a.66.65-6.7 0 1 .64.5c2.21 9.4 13.86 13.9 22.9 16.39a.36.35-45.9 0 1 .01.68q-4.44 1.4-7.48 4.9a.88.87 20.3 0 1 -.66.3c-5.06-.04-20.44-1.27-24.2 1.19-4.74 3.11-2.63 13.38-1.4 20.6q.09.53-.32.88c-4.54 3.84-8.33 6.94-8.04 13.51.08 1.65.74 3.38 2.02 4.34a.59.59 0 0 1 -.35 1.07l-21.97-.07a1.34 1.34 0 0 0 -1.34 1.34zm8.63 54.46c6.69 13.34 23.3 15.59 34.82 7.36q.44-.31.79.1c5 5.91 13.08 5.03 19.53 1.89q.43-.22.43-.7v-2.8q0-.75.75-.75h4.24a.69.69 0 0 1 .63.41c3.14 7.35 11.75 7.3 18.07 4.59q.45-.2.91 0c9.3 3.98 21.92 2.42 28.5-5.86q.34-.43.5.09c2.95 9.21 13.77 8.37 21.03 5.09q.36-.17.36-.57l-.05-4.5q-.01-1.66.53-.09c2.41 6.96 8.39 7.1 14.59 7.34 4.92.2 11.13.48 15.66-1.52q.46-.2.91.01c5.01 2.31 11.14 1.72 16.19-.01a1.14 1.13-38.5 0 1 .93.1c7.95 4.66 16.15-1.14 17.95-9.04q.12-.55-.18-1.02l-3.79-5.83q-.24-.38-.04-.78 6.57-12.99-2.88-21.68c-6.71-6.18-18.18-5.67-26.25-2.94q-.75.25-1.23.11-.56-.17-.92-.73-.27-.42-.78-.42c-7.31 0-17.11-1.04-24.08.83q-.5.13-.93-.16l-.96-.64q-.39-.26-.87-.26-12.37-.07-24.73.03-2.16.01-5.02 1.72-.44.26-.91.06-13.21-5.83-25.06 1.87-.59.38-1.16-.03-9.48-6.96-19.7-.62-.45.28-.89 0-10.97-6.79-20.3 1.83-.42.39-.89.04-13.63-10.31-28.58-1.76-.47.26-.79-.17l-1.85-2.55q-.31-.44-.85-.44-6.76-.04-23.6.11c-12.24.12-13.28 12.46-7.01 20.02a1.05 1.03-19.6 0 0 .8.37h3.23q.51 0 .51.51c.02 9.87-2.2 22.46 10.82 22.93q5.52.2 10.8-1.92.39-.15.39-.57v-8.94q0-.97.43-.11z" fill="#fff"/><path d="m340.99 311.66q.3 2.03-.66 3.28-.23.31-.62.31h-180.49a.97.96 75 0 1 -.84-.49q-.71-1.23-.33-3.07l-.02-9.81a1.34 1.34 0 0 1 1.34-1.34l21.97.07a.59.59 0 0 0 .35-1.07c-1.28-.96-1.94-2.69-2.02-4.34-.29-6.57 3.5-9.67 8.04-13.51q.41-.35.32-.88c-1.23-7.22-3.34-17.49 1.4-20.6 3.76-2.46 19.14-1.23 24.2-1.19a.88.87 20.3 0 0 .66-.3q3.04-3.5 7.48-4.9a.36.35-45.9 0 0 -.01-.68c-9.04-2.49-20.69-6.99-22.9-16.39a.66.65-6.7 0 0 -.64-.5c-15.19-.02-23.14-21.29-10.33-29.97q.43-.29.24-.78-2.98-7.58-5.23-15.35-.65-2.25-2.18-4.31-3.71-4.97-6.54-11.16a2.28 2.28 0 0 1 1.26-3.08q.69-.27 2 1.19.89.98 3.58 1.1.44.02.19-.34c-8.66-12.2-7.69-31.72-2.24-44.79a1.41 1.41 0 0 1 2.71.49c.35 9.16 2.35 17.1 11.81 20.82q2.26.89 1.3-1.34c-2.13-4.94-4.4-19.44-1.51-24.11a.75.75 0 0 1 1.29.03c1.94 3.55 2.85 14.28 8.93 13.04q.5-.1.76-.53c5.73-9.3 18.68-22.19 30-23.93a1.27 1.27 0 0 1 1.27 1.92l-3.76 6.06q-.53.84.41.53c17.74-5.95 37.33-7.14 55.2-.81a1.73 1.62 76.1 0 1 .65.42q1.45 1.49.04 2.32-.4.24-1.21.34-6.12.73-10.48 4.94a.55.55 0 0 0 .23.93c10.12 2.86 18.91 6.45 26.7 13.44a1.28 1.28 0 0 1 -1.06 2.22l-3.69-.6a.31.31 0 0 0 -.24.56c15.8 11.59 18.8 29.26 11.8 46.93q-.17.45-.56.72-.58.41-.79 1.1-1.7 5.62-3.59 11.17-.16.46.25.73c13.23 8.35 5.19 29.38-9.71 30.19q-.51.03-.64.52c-2.48 9.11-12.45 13.59-21.16 16.3q-1.05.32-.02.69 4.2 1.52 7.31 4.73a1.4 1.37 67.5 0 0 .99.42q10.19-.01 20.33.01c6.7.01 9.93 2.13 9.44 9.24q-.49 6.9-1 13.81a.81.8-73.1 0 0 .4.76c6.11 3.5 10.58 11.1 5.33 17.33a.33.33 0 0 0 .25.54l21.95-.2a2.07 2.06-.1 0 1 2.08 2.06zm-134.81-173.37-2.13 3.58a.55.55 0 0 1 -1.02-.25l-.04-.9q-.04-.63-.66-.63c-3.14-.02-6.26-3.44-6.86-5.83q-1.41-5.61-1.41.17 0 4.99 1.87 10.79c.89 2.77 2.81 5.04 4.31 7.71-11.87.61-19.74-7.74-20.3-18.84a.36.36 0 0 0 -.71-.06q-3.22 13.06-.93 26.47 1.37 10.35 9.62 16.22a.32.32 0 0 1 -.17.58q-5.25.35-9.96-1.91-.63-.3-.51.38.24 1.4 1.08 2.24 2.3 4.72 5.89 8.22 2.37 10.3 6.99 19.78l3.01 1.46q.47.23.44-.29-.88-17.11 9.96-30.32c5.44-6.62 15.91-6.27 23.7-6.93a.38.37-36.4 0 0 .11-.72q-6.07-2.46-8.23-7.68-1.7-4.14.65-.33c5.34 8.64 21.73 7.96 30.39 5.87q1.65-.4.34-1.48-7.51-6.21-16.92-8.68-.16-.04-.06-.17.08-.11.2-.18.13-.07.37-.05c14.64 1.77 26.71 13.62 33.72 25.82a.21.2-58.9 0 0 .38-.1q.64-11.1-3.39-21.45-.05-.15.1-.2.13-.04.27-.09.35-.11.46.25l1.98 6.99a1.33 1.31 5.4 0 0 .69.82c9.58 4.62 14.39 10.15 21.91 17.96q.6.61.72-.23l1.98-13.06q.08-.52.47-.16 7.86 7.28 13.45 16.44.32.53.58-.03 2.99-6.36 2.95-13.53c.77-15.1-8.54-26.8-22.14-32.4l5.98-1.02 3.18.22a.29.28-26 0 0 .18-.52q-11.16-7.71-25.79-10.88 2.26-6.82 10.56-8.76.72-.17.12-.6-1.35-.97-3.34-1.01c-17.57-3.89-34.5-2.01-51.43 4.39q.03-4.26 2.52-7.71l.53-.89q.48-.82-.39-.43-15.87 7.09-25.27 21.96zm-6.9 52.21q-3.37 9.26-1.46 18.49.15 13.6 3.04 26.54c1.65 7.35 9.02 11.23 16.3 13.47q11.47 4.54 24.73 5.43 10.72 1.56 20.86-.83l11.87-3.39c5.62-1.51 16.12-6.26 17.9-12.7q2.9-10.5 3.47-26.93 2.17-8.91-.8-18.55-.05-1.44-1.41-3.26a.3.3 0 0 0 -.54.24q.21 1.15-.8 1.68a.71.71 0 0 1 -.88-.17c-5.87-6.78-11.57-13.38-19.49-17.88q-.62-.35-.54.36.8 7.27-.71 14.41a1 .98 78.5 0 1 -.38.59q-.97.72-1.49-.39-5.09-10.89-13.95-19.14a.86.85-33.6 0 0 -.87-.17q-7.98 3.06-12.88 2.5c-7.02-.81-13.98 1.91-21.1 2.43q-6.37.46-8.65 1.43c-6.58 2.79-9.7 10.11-12.22 15.84zm102.79 15.65q3.2-6.35 4.65-14.22-4.2-7.12-10.34-13.63-.53-.56-.65.2l-.95 6.01a1.68 1.63-54.9 0 0 .16 1q5.12 10.12 4.23 21.46-.05.64.52.35zm-111.84 2.16q-3.52.85-4.82 4.28-1.39 2.18-1.45 3.67-.64 14.47 13.34 18.09a.73.73 0 0 0 .76-1.16l-.37-.48q.31-1.18-.51-2.25.36-.66.25-.89l-1.31-7.98a.77.77 0 0 0 -1.45-.21q-.93 1.93-.95 4.11-.1 0-.19-.01-.71-2.45.1-5.01a.79.78-66.7 0 0 -.36-.92l-3.14-1.83a.57.57 0 0 0 -.79.22q-.57 1.07-1.69 1.45 1.56-2.49-1.24-3.38-.16-.05-.16-.22 0-.14-.01-.29-.01-.26.24-.18 5.04 1.5 9.05 4.9a.39.39 0 0 0 .64-.34c-.33-3.2-2.34-11.55-5.94-11.57zm116.87 8.44q-1.37-.15-1.95.29-.32.24-.33 1.17 0 .62-.09 1.24-.11.7-.54.14l-1.06-1.38a.76.75 54.7 0 0 -1.02-.18l-2.15 1.4a.85.83-19.3 0 0 -.39.79q.4 4.17-.66 8.26a.72.7 81.6 0 1 -.31.43q-2.54 1.52-2.74 4.45-.05.64.59.64 3.18.03 5.66-2.01 7.36-4.63 7.55-13.52c.27-12.46-12.99-13.58-11.52.58q.05.46.43.19 3.44-2.49 7.6-3.41.16-.04.28-.16l.4-.4q.57-.57.62.24.02.44-.37 1.24zm-9.5 4.12-1.24 8.68a.02.02 0 0 0 .02.02l.06.01a4.19 2.06-81.9 0 0 2.63-3.86l.06-.42a4.19 2.06-81.9 0 0 -1.45-4.44h-.06a.02.02 0 0 0 -.02.01zm-61.24 35.6-11.36-2.21a1.17 1.16 72.6 0 0 -1.03 1.98c3.56 3.46 7.67 2.9 12.19 2.73a1.26 1.26 0 0 0 .2-2.5zm34.42-2.01-8.9 1.8a1.34 1.34 0 0 0 -.04 2.62q5.92 1.38 9.84-2.82a.96.96 0 0 0 -.9-1.6zm-51.61 3.35-1.33.55a.23.23 0 0 0 .17.43l.89-.32q.43-.16.87-.01 2.21.78 4.51.43.63-.1.27-.62c-1.07-1.52-3.11-2.97-4.68-.98q-.28.35-.7.52zm56.14-.87q-.55-.63-1.37-.71a1.06 1.04 24.9 0 0 -.82.29l-1.87 1.82q-.78.76.31.71l4.02-.18a.8.8 0 0 0 .68-1.16q-.31-.6-.95-.77zm-16.4095.8173a.51.51 0 0 0 -.5092-.5109l-18.7799-.0328a.51.51 0 0 0 -.5109.5091l-.001.54a.51.51 0 0 0 .5092.5109l18.7799.0328a.51.51 0 0 0 .5109-.5091zm-67.5205 33.8827.79 9.02c-.78 4.41.82 7.08 5.48 7.08q51.95.02 103.9.01c6.33 0 5.22-5.9 5.61-10.19q1.34-14.77 2.55-29.53c.28-3.42-.93-6.78-4.71-6.78q-55.5 0-111 .22-5.41.03-5.09 5.54.71 12.16 2.47 24.63zm-9.3 3.24q.33-5.08 4.03-8.52.29-.27-.1-.31-.27-.02-.43.21c-2.24 3.36-3.87 4.47-4.12 8.94q-.02.35.33.31l.38-.06a.13.12-19.4 0 0 .1-.19l-.17-.28a.29.24 39.3 0 1 -.02-.1zm3.22 3.91q1.05 2.64 3.65 2.94.56.06.52-.5l-.26-3.17-.8-9.8a.55.55 0 0 0 -.94-.35c-2.72 2.76-4.72 7.18-2.17 10.88zm128.62-10.73 1.6 2.77q.26.44.34.95l.39 2.46a.27.27 0 0 0 .54-.04q.04-3.72-2.56-6.37a.2.19 8 0 0 -.31.23zm-4.2 9.72-.45 3.69q-.07.61.53.48 2.41-.5 3.76-2.87 2.49-6.29-2.52-11a.44.43-67.2 0 0 -.73.3zm-132.31 5.61q-8.9-.72-17.24.33l.16 8.69q.01.52.54.52l177.23-.11q.6 0 .59-.6l-.07-7.37q.32-.76.02-1.32-.25-.46-.77-.45l-19.24.33q-3.53-.18-7.32-.58-2.72-.29-2.53 2.36.04.47-.17.89c-1.35 2.8-3.31 4.17-6.59 4.17q-51.96 0-103.93 0c-4.85 0-7.83-1.49-8.39-6.47q-.06-.51-.57-.56-6.1-.66-11.72.17z"/><path d="m231.31 117.65q-13.89 7.54-21.85 21.06a1.88 1.88 0 0 1 -2.62.64q-.32-.2-.66-1.06 9.4-14.87 25.27-21.96.87-.39.39.43z" fill="#40444d"/><path d="m231.31 117.65q-2.49 3.45-2.52 7.71-3.4 1.78-7.11 4.05-.15.09-.17.23-.06.35.27.24l10.01-3.49q.48-.17.95.05 1.74.79 3.61.43a.39.39 0 0 0 -.02-.76l-1.08-.15a.41.41 0 0 1 -.06-.8q15.53-4.28 31.56-2.35 1.71.2 6.76-1.64.48-.18.99-.09l5.24.91q.57.1.52-.48l-.04-.54q1.99.04 3.34 1.01.6.43-.12.6-8.3 1.94-10.56 8.76-11.86-1.96-23.7.1-3.7.64-9.39 2.96-.07.02-.04.1.01.04.03.08.05.14.2.1 9.93-2.36 13.52-2.44 20.9-.42 39.7 8.56.96.45 2.11 1.72l-5.98 1.02-3.6-.76a.25.25 0 0 0 -.19.46q2.43 1.61 4.83 3.17c11.79 7.67 16.15 17.49 18.85 30.82q.1.5.61.52 1.43.08 1.64-1.81.04 7.17-2.95 13.53-.26.56-.58.03-5.59-9.16-13.45-16.44-.39-.36-.47.16l-1.98 13.06q-.12.84-.72.23c-7.52-7.81-12.33-13.34-21.91-17.96a1.33 1.31 5.4 0 1 -.69-.82l-1.98-6.99q-.11-.36-.46-.25-.14.05-.27.09-.15.05-.1.2 4.03 10.35 3.39 21.45a.21.2-58.9 0 1 -.38.1c-7.01-12.2-19.08-24.05-33.72-25.82q-.24-.02-.37.05-.12.07-.2.18-.1.13.06.17 9.41 2.47 16.92 8.68 1.31 1.08-.34 1.48c-8.66 2.09-25.05 2.77-30.39-5.87q-2.35-3.81-.65.33 2.16 5.22 8.23 7.68a.38.37-36.4 0 1 -.11.72c-7.79.66-18.26.31-23.7 6.93q-10.84 13.21-9.96 30.32.03.52-.44.29l-3.01-1.46-6.99-19.78q-3.59-3.5-5.89-8.22 6.4 1.22 12.16.08.56-.11.19-.54l-6.65-7.73q-6.38-11.92-5.26-26.29a.59.59 0 0 1 1.16-.07c2.56 13 13.67 15.07 24.6 11.34q.15-.05.24-.21.23-.37-.2-.29l-2.52.5q-.72.14-.8-.59-.15-1.52-1.04-1.28c-1.5-2.67-3.42-4.94-4.31-7.71q-1.87-5.8-1.87-10.79 0-5.78 1.41-.17c.6 2.39 3.72 5.81 6.86 5.83q.62 0 .66.63l.04.9a.55.55 0 0 0 1.02.25l2.13-3.58q.34.86.66 1.06a1.88 1.88 0 0 0 2.62-.64q7.96-13.52 21.85-21.06z" fill="#2a272e"/><path d="m280.22 120.97.04.54q.05.58-.52.48l-5.24-.91q-.51-.09-.99.09-5.05 1.84-6.76 1.64-16.03-1.93-31.56 2.35a.41.41 0 0 0 .06.8l1.08.15a.39.39 0 0 1 .02.76q-1.87.36-3.61-.43-.47-.22-.95-.05l-10.01 3.49q-.33.11-.27-.24.02-.14.17-.23 3.71-2.27 7.11-4.05c16.93-6.4 33.86-8.28 51.43-4.39z" fill="#40444d"/><path d="m272.88 131.34q14.63 3.17 25.79 10.88a.29.28-26 0 1 -.18.52l-3.18-.22q-1.15-1.27-2.11-1.72-18.8-8.98-39.7-8.56-3.59.08-13.52 2.44-.15.04-.2-.1-.02-.04-.03-.08-.03-.08.04-.1 5.69-2.32 9.39-2.96 11.84-2.06 23.7-.1z" fill="#40444d"/><path d="m200.24 152.93q.89-.24 1.04 1.28.08.73.8.59l2.52-.5q.43-.08.2.29-.09.16-.24.21c-10.93 3.73-22.04 1.66-24.6-11.34a.59.59 0 0 0 -1.16.07q-1.12 14.37 5.26 26.29-2.38-1.49-3.14-4.62-.13-.53-.65-.7-1.19-.37-.73-1.83.16-.5-.18-.91l-1.06-1.26q-2.29-13.41.93-26.47a.36.36 0 0 1 .71.06c.56 11.1 8.43 19.45 20.3 18.84z" fill="#40444d"/><path d="m289.33 143.54c13.6 5.6 22.91 17.3 22.14 32.4q-.21 1.89-1.64 1.81-.51-.02-.61-.52c-2.7-13.33-7.06-23.15-18.85-30.82q-2.4-1.56-4.83-3.17a.25.25 0 0 1 .19-.46z" fill="#40444d"/><path d="m178.3 160.5 1.06 1.26q.34.41.18.91-.46 1.46.73 1.83.52.17.65.7.76 3.13 3.14 4.62l6.65 7.73q.37.43-.19.54-5.76 1.14-12.16-.08-.84-.84-1.08-2.24-.12-.68.51-.38 4.71 2.26 9.96 1.91a.32.32 0 0 0 .17-.58q-8.25-5.87-9.62-16.22z" fill="#393536"/><path d="m295.19 192.03-2.34 7.28q-.19.6-.67.2l-19.29-16.07a.69.69 0 0 0 -1.11.69l1.66 6.71-6.39 4.61c-10.74-15.91-26.16-24.45-45.42-20.6-12.69 2.54-17.6 9.68-21.66 21.2q-.38 1.05-.44-.07-.12-2.12.46-4.48.25-1.02-.71-1c2.52-5.73 5.64-13.05 12.22-15.84q2.28-.97 8.65-1.43c7.12-.52 14.08-3.24 21.1-2.43q4.9.56 12.88-2.5a.86.85-33.6 0 1 .87.17q8.86 8.25 13.95 19.14.52 1.11 1.49.39a1 .98 78.5 0 0 .38-.59q1.51-7.14.71-14.41-.08-.71.54-.36c7.92 4.5 13.62 11.1 19.49 17.88a.71.71 0 0 0 .88.17q1.01-.53.8-1.68a.3.3 0 0 1 .54-.24q1.36 1.82 1.41 3.26z" fill="#c3957d"/><path d="m267.05 195.45q-1.55 2.34-1.05 4.8.53 2.58 3.11 1.4.15 1.07-1.38 1.96-.4.24-.4.71.03 1.09-1.06 2.26-3.26 3.5-2.4 9.22l-.09 1.94q-.14 2.06.65 3.94c-1.17 1.17-.81 2.63.39 3.68 5.94 5.19 11.96 3.66 19.77 2.21a.83.83 0 0 0 .66-.6l1.36-5.11c5.85-9.07-1.89-19.08-12.07-18.94l6.2-5.2q2.59.28 5.01 2.45a.68.68 0 0 0 .9 0q1.01-.92.42-2.23a2.51.62 76.2 0 0 -.34-.65q-5.34-7.81-13.29-6.45l-1.66-6.71a.69.69 0 0 1 1.11-.69l19.29 16.07q.48.4.67-.2l2.34-7.28q2.97 9.64.8 18.55l-4.74 21.49a.76.76 0 0 1 -1.36.28c-2.42-3.33-13.31.3-16.06 2.09a1.78 1.78 0 0 0 .37 3.18q7.45 2.61 14.87-.36.58-.23.37.35-.61 1.7-1.89 2.93-5.54 5.32-12.93 9.67l-11.87 3.39q-2.27-.35-4.5-.29-8.14.21-16.36 1.12-13.26-.89-24.73-5.43-8.34-5.06-12.98-11.78a.5.49-3.6 0 1 .64-.72q7.34 3.78 15.42 1.87a1.49 1.49 0 0 0 .52-2.66c-3.28-2.35-13.09-6.79-16.68-3.96a1.08 1.08 0 0 1 -1.72-.63l-4.54-22.13q-1.91-9.23 1.46-18.49.96-.02.71 1-.58 2.36-.46 4.48.06 1.12.44.07c4.06-11.52 8.97-18.66 21.66-21.2 19.26-3.85 34.68 4.69 45.42 20.6zm-53.62 2.26 5.38 4.88q-17.17 2.78-11.36 19.72l1.51 4.35q.16.47.64.6 8.34 2.27 11.39 1.79c2.93-.46 11.86-3.53 9.01-7.47l.59-4.22q1.11-6.14-3.27-11.38-.35-.43-.41-.99-.15-1.6-1.73-2.13-.44-.16-.14-.51l.39-.45q.76.09 1.38-.21.46-.23.57-.74c1.07-4.96-1.98-7.18-5.73-9.25-3.5-1.94-6.72-1.35-10.01.93-1.89 1.32-5.24 4.02-5.16 6.63a.99.99 0 0 0 1.64.72q2.43-2.11 5.31-2.27zm34.11 32.81-.76-.37q-.92-.43-.47.48.54 1.11 1.29.58a.4.4 0 0 0 -.06-.69zm11.35 6.98c-6.49 4.5-14.46 4.5-21.19.55a.58.58 0 0 0 -.87.44l-.07.71q-.04.45.35.68 10.35 6.04 21.1.37 1.36-.72 1.81-1.87a.75.75 0 0 0 -1.13-.88z" fill="#fbccaa"/><path d="m306.72 191.93q-3.31 7.06-4.65 14.22l-2.38 1.17q-.57.29-.52-.35.89-11.34-4.23-21.46a1.68 1.63-54.9 0 1 -.16-1l.95-6.01q.12-.76.65-.2 6.14 6.51 10.34 13.63z" fill="#2a272e"/><path d="m184.25 186.23 6.99 19.78q-4.62-9.48-6.99-19.78z" fill="#40444d"/><path d="m225.43 201.9c-3.78-1.86-7.44-5.02-12-4.19q-2.88.16-5.31 2.27a.99.99 0 0 1 -1.64-.72c-.08-2.61 3.27-5.31 5.16-6.63 3.29-2.28 6.51-2.87 10.01-.93 3.75 2.07 6.8 4.29 5.73 9.25q-.11.51-.57.74-.62.3-1.38.21z"/><path d="m280.74 197.72c-4.46-.67-8.2 1.54-11.63 3.93q-2.58 1.18-3.11-1.4-.5-2.46 1.05-4.8l6.39-4.61q7.95-1.36 13.29 6.45a2.51.62 76.2 0 1 .34.65q.59 1.31-.42 2.23a.68.68 0 0 1 -.9 0q-2.42-2.17-5.01-2.45z"/><path d="m306.72 191.93q-1.45 7.87-4.65 14.22 1.34-7.16 4.65-14.22z" fill="#40444d"/><path d="m225.43 201.9-.39.45q-.3.35.14.51 1.58.53 1.73 2.13.06.56.41.99 4.38 5.24 3.27 11.38-.13.2-.25.4c-.7-7.1-4.3-12.97-11.53-15.17l-5.38-4.88c4.56-.83 8.22 2.33 12 4.19z" fill="#c3957d"/><path d="m280.74 197.72-6.2 5.2c-6.25 1.98-8.86 6.72-10.67 12.88q-.86-5.72 2.4-9.22 1.09-1.17 1.06-2.26 0-.47.4-.71 1.53-.89 1.38-1.96c3.43-2.39 7.17-4.6 11.63-3.93z" fill="#c3957d"/><path d="m218.81 202.59c7.23 2.2 10.83 8.07 11.53 15.17q-2.25.59-2.63 3.14a1.76 1.71 69.8 0 1 -.39.88q-5.14 6.24-11.43.79.06-1.57-.86-3.49-.39-.8-.89-.8-.61 0-1.17.98l-.48.26q-1.63-5.33 2.6-9.8 3.37-2.48 7.97-2.14.76.06.13-.38c-6.29-4.37-14.14-.03-15.07 7.29l-.67 7.82q-5.81-16.94 11.36-19.72zm6.32 10.25a1.66 1.66 0 0 0 -1.66-1.66 1.66 1.66 0 0 0 -1.66 1.66 1.66 1.66 0 0 0 1.66 1.66 1.66 1.66 0 0 0 1.66-1.66z"/><path d="m274.54 202.92c10.18-.14 17.92 9.87 12.07 18.94q.49-4.21-.38-6.68c-1.03-7.72-8.85-12.78-15.55-7.76q-.39.29.09.25 4.52-.38 7.83 2.1 4.01 4.01 3.37 9.04l-1.38-.31a.59.58 13.4 0 0 -.69.42c-1.99 7.64-11.17 8.29-13.68.97-.45-1.31-1.16-1.94-2.44-2.15l.09-1.94c1.81-6.16 4.42-10.9 10.67-12.88zm1.97 9.98a1.64 1.64 0 0 0 -1.64-1.64 1.64 1.64 0 0 0 -1.64 1.64 1.64 1.64 0 0 0 1.64 1.64 1.64 1.64 0 0 0 1.64-1.64z"/><path d="m215.09 209.72q-3.46-.13-6.97 4.77c.93-7.32 8.78-11.66 15.07-7.29q.63.44-.13.38-4.6-.34-7.97 2.14z" fill="#9b969a"/><path d="m286.23 215.18q-3.9-5.68-7.63-5.41-3.31-2.48-7.83-2.1-.48.04-.09-.25c6.7-5.02 14.52.04 15.55 7.76z" fill="#9b969a"/><path d="m187.65 219.39c-1.72 6.02 2.33 14.48 10.04 13.32l.37.48a.73.73 0 0 1 -.76 1.16q-13.98-3.62-13.34-18.09.06-1.49 1.45-3.67 3.06-.02 4.82-4.28c3.6.02 5.61 8.37 5.94 11.57a.39.39 0 0 1 -.64.34q-4.01-3.4-9.05-4.9-.25-.08-.24.18.01.15.01.29 0 .17.16.22 2.8.89 1.24 3.38z" fill="#fbccaa"/><path d="m190.23 208.31q-1.76 4.26-4.82 4.28 1.3-3.43 4.82-4.28z" fill="#ffe3cf"/><path d="m302.11 231.99q6.44-6.53 4.99-15.24.39-.8.37-1.24-.05-.81-.62-.24l-.4.4q-.12.12-.28.16-4.16.92-7.6 3.41-.38.27-.43-.19c-1.47-14.16 11.79-13.04 11.52-.58q-.19 8.89-7.55 13.52z" fill="#fbccaa"/><path d="m197.82 208.99 4.54 22.13a1.08 1.08 0 0 0 1.72.63c3.59-2.83 13.4 1.61 16.68 3.96a1.49 1.49 0 0 1 -.52 2.66q-8.08 1.91-15.42-1.87a.5.49-3.6 0 0 -.64.72q4.64 6.72 12.98 11.78c-7.28-2.24-14.65-6.12-16.3-13.47q-2.89-12.94-3.04-26.54z" fill="#ffe3cf"/><path d="m215.09 209.72q-4.23 4.47-2.6 9.8-.17 1.6.53 2.06.5.32.29-.23-.38-1.02-.34-2.09.56-.98 1.17-.98.5 0 .89.8.92 1.92.86 3.49-1.21.4-1.39 1.33-.09.51.29.86c5.35 4.91 11.93 3.07 15.21-3.18 2.85 3.94-6.08 7.01-9.01 7.47q-3.05.48-11.39-1.79-.48-.13-.64-.6l-1.51-4.35.67-7.82q3.51-4.9 6.97-4.77z" fill="#fff"/><path d="m286.23 215.18q.87 2.47.38 6.68l-1.36 5.11a.83.83 0 0 1 -.66.6c-7.81 1.45-13.83 2.98-19.77-2.21-1.2-1.05-1.56-2.51-.39-3.68 4.92 8.95 17 7.09 17.54-2.87q.64-5.03-3.37-9.04 3.73-.27 7.63 5.41z" fill="#fff"/><path d="m295.99 210.58q-.57 16.43-3.47 26.93c-1.78 6.44-12.28 11.19-17.9 12.7q7.39-4.35 12.93-9.67 1.28-1.23 1.89-2.93.21-.58-.37-.35-7.42 2.97-14.87.36a1.78 1.78 0 0 1 -.37-3.18c2.75-1.79 13.64-5.42 16.06-2.09a.76.76 0 0 0 1.36-.28z" fill="#ffe3cf"/><circle cx="223.47" cy="212.84" fill="#fff" r="1.66"/><circle cx="274.87" cy="212.9" fill="#fff" r="1.64"/><path d="m307.1 216.75q1.45 8.71-4.99 15.24-2.48 2.04-5.66 2.01-.64 0-.59-.64.2-2.93 2.74-4.45a.72.7 81.6 0 0 .31-.43q1.06-4.09.66-8.26a.85.83-19.3 0 1 .39-.79l2.15-1.4a.76.75 54.7 0 1 1.02.18l1.06 1.38q.43.56.54-.14.09-.62.09-1.24.01-.93.33-1.17.58-.44 1.95-.29z" fill="#c3957d"/><path d="m230.34 217.76q.12-.2.25-.4l-.59 4.22c-3.28 6.25-9.86 8.09-15.21 3.18q-.38-.35-.29-.86.18-.93 1.39-1.33 6.29 5.45 11.43-.79a1.76 1.71 69.8 0 0 .39-.88q.38-2.55 2.63-3.14z" fill="#393536"/><path d="m193.53 225.48q.22 4.11 3.65 4.98.82 1.07.51 2.25c-7.71 1.16-11.76-7.3-10.04-13.32q1.12-.38 1.69-1.45a.57.57 0 0 1 .79-.22l3.14 1.83a.79.78-66.7 0 1 .36.92q-.81 2.56-.1 5.01z" fill="#c3957d"/><path d="m263.78 217.74c1.28.21 1.99.84 2.44 2.15 2.51 7.32 11.69 6.67 13.68-.97a.59.58 13.4 0 1 .69-.42l1.38.31c-.54 9.96-12.62 11.82-17.54 2.87q-.79-1.88-.65-3.94z" fill="#393536"/><path d="m212.97 219.26q-.04 1.07.34 2.09.21.55-.29.23-.7-.46-.53-2.06z" fill="#5c636d"/><path d="m197.43 229.57q-3-.81-3.71-4.08.02-2.18.95-4.11a.77.77 0 0 1 1.45.21z" fill="#c3957d"/><path d="m297.6 220.87a.02.02 0 0 1 .02-.01h.06a4.19 2.06-81.9 0 1 1.45 4.44l-.06.42a4.19 2.06-81.9 0 1 -2.63 3.86l-.06-.01a.02.02 0 0 1 -.02-.02z" fill="#c3957d"/><path d="m193.53 225.48q.09.01.19.01.71 3.27 3.71 4.08.11.23-.25.89-3.43-.87-3.65-4.98z" fill="#393536"/><path d="m247.54 230.52a.4.4 0 0 1 .06.69q-.75.53-1.29-.58-.45-.91.47-.48z" fill="#c3957d"/><path d="m237.7 238.05c6.73 3.95 14.7 3.95 21.19-.55a.75.75 0 0 1 1.13.88q-.45 1.15-1.81 1.87-10.75 5.67-21.1-.37-.39-.23-.35-.68l.07-.71a.58.58 0 0 1 .87-.44z"/><path d="m262.75 253.6q-10.14 2.39-20.86.83 8.22-.91 16.36-1.12 2.23-.06 4.5.29z" fill="#c3957d"/><path d="m225 254.26 11.36 2.21a1.26 1.26 0 0 1 -.2 2.5c-4.52.17-8.63.73-12.19-2.73a1.17 1.16 72.6 0 1 1.03-1.98z" fill="#40444d"/><path d="m270.78 254.46a.96.96 0 0 1 .9 1.6q-3.92 4.2-9.84 2.82a1.34 1.34 0 0 1 .04-2.62z" fill="#40444d"/><path d="m219.87 257.29c1.57-1.99 3.61-.54 4.68.98q.36.52-.27.62-2.3.35-4.51-.43-.44-.15-.87.01l-.89.32a.23.23 0 0 1 -.17-.43l1.33-.55q.42-.17.7-.52z" fill="#393536"/><path d="m275.31 256.94q.64.17.95.77a.8.8 0 0 1 -.68 1.16l-4.02.18q-1.09.05-.31-.71l1.87-1.82a1.06 1.04 24.9 0 1 .82-.29q.82.08 1.37.71z" fill="#393536"/><rect fill="#c3957d" height="1.56" rx=".51" transform="matrix(.99999848 .00174533 -.00174533 .99999848 249 258.01)" width="19.8" x="-9.9" y="-.78"/><path d="m307.16 297.56q-.98-.12-.51-.11l1.51-30.87a3.41 3.4-88.6 0 0 -3.4-3.58h-111.23a3.17 3.16 88.9 0 0 -3.16 3.29l1.01 25.35q-1.76-12.47-2.47-24.63-.32-5.51 5.09-5.54 55.5-.22 111-.22c3.78 0 4.99 3.36 4.71 6.78q-1.21 14.76-2.55 29.53z" fill="#fff"/><path d="m306.65 297.45c-.62.17-.91.33-1.55.25-10.77-1.23-22.87-3.39-33.66-2.52q-39.23 3.13-78.44 6.57-.89.08-.83-1.09l-.79-9.02-1.01-25.35a3.17 3.16 88.9 0 1 3.16-3.29h111.23a3.41 3.4-88.6 0 1 3.4 3.58zm-57.48-19.44a.94.94 0 0 0 1.24 1.29q2.36-1.13 2.61-3.74a.44.44 0 0 0 -.6-.44q-2.2.92-3.25 2.89zm-4.5 15.14a2.18 2.16-38.1 0 0 2.3.27q2.99-1.45 6 .24a.75.75 0 0 0 .88-.11l3.15-3.03q.51-.49-.03-.94-4.17-3.44-.32-7.12a.54.54 0 0 0 -.03-.81q-3.15-2.59-6.84-.62a1.01 1.01 0 0 1 -.91.02c-4.51-2.14-8.27.42-8.01 5.2q.22 3.97 3.81 6.9z" fill="#5c636d"/><path d="m249.17 278.01q1.05-1.97 3.25-2.89a.44.44 0 0 1 .6.44q-.25 2.61-2.61 3.74a.94.94 0 0 1 -1.24-1.29z" fill="#fff"/><path d="m244.67 293.15q-3.59-2.93-3.81-6.9c-.26-4.78 3.5-7.34 8.01-5.2a1.01 1.01 0 0 0 .91-.02q3.69-1.97 6.84.62a.54.54 0 0 1 .03.81q-3.85 3.68.32 7.12.54.45.03.94l-3.15 3.03a.75.75 0 0 1 -.88.11q-3.01-1.69-6-.24a2.18 2.16-38.1 0 1 -2.3-.27z" fill="#fff"/><path d="m182.1 294.98.17.28a.13.12-19.4 0 1 -.1.19l-.38.06q-.35.04-.33-.31c.25-4.47 1.88-5.58 4.12-8.94q.16-.23.43-.21.39.04.1.31-3.7 3.44-4.03 8.52a.29.24 39.3 0 0 .02.1z" fill="#393536"/><path d="m189.21 298.06q-2.4-.46-3.91.73c-2.55-3.7-.55-8.12 2.17-10.88a.55.55 0 0 1 .94.35z" fill="#fbccaa"/><path d="m314.23 287.83q2.6 2.65 2.56 6.37a.27.27 0 0 1 -.54.04l-.39-2.46q-.08-.51-.34-.95l-1.6-2.77a.2.19 8 0 1 .31-.23z" fill="#2b2a2b"/><path d="m313.56 299.08q-1.67-1.73-3.84-1.3l.59-9.4a.44.43-67.2 0 1 .73-.3q5.01 4.71 2.52 11z" fill="#fbccaa"/><path d="m306.65 297.45q-.47-.01.51.11c-.39 4.29.72 10.19-5.61 10.19q-51.95.01-103.9-.01c-4.66 0-6.26-2.67-5.48-7.08q-.06 1.17.83 1.09 39.21-3.44 78.44-6.57c10.79-.87 22.89 1.29 33.66 2.52.64.08.93-.08 1.55-.25z" fill="#40444d"/><path d="m309.72 297.78q2.17-.43 3.84 1.3-1.35 2.37-3.76 2.87-.6.13-.53-.48z" fill="#c3957d"/><path d="m189.21 298.06.26 3.17q.04.56-.52.5-2.6-.3-3.65-2.94 1.51-1.19 3.91-.73z" fill="#c3957d"/><path d="m318.63 303.41 19.99 1.44.07 7.37q.01.6-.59.6l-177.23.11q-.53 0-.54-.52l-.16-8.69q8.45 1.14 17.24-.33 5.62-.83 11.72-.17.51.05.57.56c.56 4.98 3.54 6.47 8.39 6.47q51.97 0 103.93 0c3.28 0 5.24-1.37 6.59-4.17q.21-.42.17-.89-.19-2.65 2.53-2.36 3.79.4 7.32.58z" fill="#2a272e"/><path d="m177.41 303.39q-8.79 1.47-17.24.33 8.34-1.05 17.24-.33z" fill="#40444d"/><path d="m338.62 304.85-19.99-1.44 19.24-.33q.52-.01.77.45.3.56-.02 1.32z" fill="#40444d"/><path d="m158.05 311.69q-.38 1.84.33 3.07a.97.96 75 0 0 .84.49h180.49q.39 0 .62-.31.96-1.25.66-3.28 2.53-.09 5.29 1.82 1.3.89.26 2.08c-2.84 3.21-22.65 5.37-27.94 5.91q-72.2 7.34-144.42-.64c-6.52-.72-16.82-2.07-22.79-5.46a.66.65-54.2 0 1 -.16-1.01q2.59-2.88 6.82-2.67z" fill="#9b969a"/><path d="m166.25 366.26v8.94q0 .42-.39.57-5.28 2.12-10.8 1.92c-13.02-.47-10.8-13.06-10.82-22.93q0-.51-.51-.51h-3.23a1.05 1.03-19.6 0 1 -.8-.37c-6.27-7.56-5.23-19.9 7.01-20.02q16.84-.15 23.6-.11.54 0 .85.44l1.85 2.55q.32.43.79.17 14.95-8.55 28.58 1.76.47.35.89-.04 9.33-8.62 20.3-1.83.44.28.89 0 10.22-6.34 19.7.62.57.41 1.16.03 11.85-7.7 25.06-1.87.47.2.91-.06 2.86-1.71 5.02-1.72 12.36-.1 24.73-.03.48 0 .87.26l.96.64q.43.29.93.16c6.97-1.87 16.77-.83 24.08-.83q.51 0 .78.42.36.56.92.73.48.14 1.23-.11c8.07-2.73 19.54-3.24 26.25 2.94q9.45 8.69 2.88 21.68-.2.4.04.78l3.79 5.83q.3.47.18 1.02c-1.8 7.9-10 13.7-17.95 9.04a1.14 1.13-38.5 0 0 -.93-.1c-5.05 1.73-11.18 2.32-16.19.01q-.45-.21-.91-.01c-4.53 2-10.74 1.72-15.66 1.52-6.2-.24-12.18-.38-14.59-7.34q-.54-1.57-.53.09l.05 4.5q0 .4-.36.57c-7.26 3.28-18.08 4.12-21.03-5.09q-.16-.52-.5-.09c-6.58 8.28-19.2 9.84-28.5 5.86q-.46-.2-.91 0c-6.32 2.71-14.93 2.76-18.07-4.59a.69.69 0 0 0 -.63-.41h-4.24q-.75 0-.75.75v2.8q0 .48-.43.7c-6.45 3.14-14.53 4.02-19.53-1.89q-.35-.41-.79-.1c-11.52 8.23-28.13 5.98-34.82-7.36q-.43-.86-.43.11zm36.36-12.07a14.29 14.29 0 0 0 -14.29-14.29h-2.84a14.29 14.29 0 0 0 -14.29 14.29v3.14a14.29 14.29 0 0 0 14.29 14.29h2.84a14.29 14.29 0 0 0 14.29-14.29zm53.62-4.2c-1.97-4.98 8.61-2.53 10.58-1.62q.47.21.84-.15c8.69-8.53-19.14-13.82-20.65-.19-.93 8.41 7.25 9.89 13.1 12.15 1.44.55 2.24 1.85 1.24 3.19-2.09 2.8-8.84.6-11.18-.95q-.39-.25-.82-.09-1.96.73-2.29 2.27c-1.66 7.9 11.64 7.6 16.23 6.47 6.98-1.73 10.39-9.8 4.98-15.11-2.62-2.57-7.55-4.02-11.37-5.34a1.11 1.08 87.9 0 1 -.66-.63zm83.77 12.46a1.63 1.63 0 0 1 3.04-.82q2.04 3.48 4.29 7c2.26 3.54 7.93 3.8 9.51-.54q.2-.56-.15-1.03l-5.62-7.38a.56.55 55.4 0 1 .14-.81q4.06-2.59 4.73-6.85c1.93-12.28-12.84-13.4-20.93-11.48-2.99.71-3.74 1.24-3.76 4.54q-.05 11.06-.05 22.11c0 4.69 4.82 4.25 8.26 3.67q.54-.09.54-.64zm-179.75-14.95 5.96-.01a1.37 1.36 16.1 0 0 1.15-.63q1.8-2.81.27-5.95-.2-.42-.68-.42l-22.46.03a1.34 1.32-74.3 0 0 -1.14.65q-1.74 2.95-.14 6.12.1.21.33.21h6.77q.68 0 .68.68.02 9.44.01 18.88c-.01 4.98 4.97 4.51 8.27 3.77a.62.61-6.5 0 0 .48-.6v-22.23q0-.49.5-.5zm72.31 4.17a.34.34 0 0 1 .67.1q-.01 7.7.46 15.58c.28 4.71 4.7 4.42 7.95 3.53a.82.8-6.7 0 0 .59-.73q.12-1.97-.14-4.96-1.37-16.11-1.91-21.13c-.49-4.53-7.52-3.94-10.26-2.81q-.42.18-.56.62l-4.31 13.69a.3.3 0 0 1 -.57-.01q-1.53-5.6-3.48-11.26c-1.65-4.79-8.53-4.71-11.74-2.17q-.42.33-.45.86-.62 11.21-1.24 22.42c-.16 2.94-.74 5.11 2.5 5.66q2.74.48 4.86-.08.93-.24.95-1.2l.53-18.32a.24.24 0 0 1 .47-.06q1.49 4.77 3.04 9.52c1.4 4.3 3.66 3.92 7.5 3.4q1.31-.18 1.78-1.59 1.83-5.54 3.36-11.06zm58.69-4.17 5.96-.01a1.24 1.24 0 0 0 1-.51q2.04-2.84.41-6.11-.18-.37-.6-.37h-22.46a1.41 1.4 15.6 0 0 -1.2.67q-1.77 2.88-.15 6.03.16.3.49.3h6.67q.63 0 .63.62v20.41a2.57 2.57 0 0 0 2.6 2.57l5.51-.06a.65.65 0 0 0 .64-.65v-22.39q0-.49.5-.5zm21.28-.02c3.7.04 16.62 2.1 12.43-6.45q-.23-.48-.76-.49-7.77-.18-15.53.15c-3.28.14-5.15 1.46-5.17 4.82q-.07 10.6.05 21.35a4.18 4.18 0 0 0 4.18 4.14h16.21a1.13 1.13 0 0 0 .97-.55q1.67-2.79.22-5.81-.18-.39-.61-.39h-11.77q-.75 0-.75-.75v-3.84a.61.6-1 0 1 .59-.6l9.59-.2a1.32 1.3-73.3 0 0 1.04-.57q1.83-2.66.33-5.56-.24-.48-.78-.48h-10.02q-.75 0-.75-.75v-3.49q0-.53.53-.53z" fill="#ffe3cf"/><g fill="#2b2a2b"><path d="m202.61 357.33a14.29 14.29 0 0 1 -14.29 14.29h-2.84a14.29 14.29 0 0 1 -14.29-14.29v-3.14a14.29 14.29 0 0 1 14.29-14.29h2.84a14.29 14.29 0 0 1 14.29 14.29zm-15.722 7.6099a9.18 6.92 90.2 0 0 6.952-9.1557 9.18 6.92 90.2 0 0 -6.888-9.2041 9.18 6.92 90.2 0 0 -6.952 9.1557 9.18 6.92 90.2 0 0 6.888 9.2041z"/><path d="m256.89 350.62c3.82 1.32 8.75 2.77 11.37 5.34 5.41 5.31 2 13.38-4.98 15.11-4.59 1.13-17.89 1.43-16.23-6.47q.33-1.54 2.29-2.27.43-.16.82.09c2.34 1.55 9.09 3.75 11.18.95 1-1.34.2-2.64-1.24-3.19-5.85-2.26-14.03-3.74-13.1-12.15 1.51-13.63 29.34-8.34 20.65.19q-.37.36-.84.15c-1.97-.91-12.55-3.36-10.58 1.62a1.11 1.08 87.9 0 0 .66.63z"/><path d="m340 362.45v7.77q0 .55-.54.64c-3.44.58-8.26 1.02-8.26-3.67q0-11.05.05-22.11c.02-3.3.77-3.83 3.76-4.54 8.09-1.92 22.86-.8 20.93 11.48q-.67 4.26-4.73 6.85a.56.55 55.4 0 0 -.14.81l5.62 7.38q.35.47.15 1.03c-1.58 4.34-7.25 4.08-9.51.54q-2.25-3.52-4.29-7a1.63 1.63 0 0 0 -3.04.82zm0-15.01-.02 6.36a.68.68 0 0 0 .68.68l2.03.01a4.55 3.59.2 0 0 4.56-3.58v-.54a4.55 3.59.2 0 0 -4.54-3.6l-2.03-.01a.68.68 0 0 0 -.68.68z"/><path d="m159.75 348v22.23a.62.61-6.5 0 1 -.48.6c-3.3.74-8.28 1.21-8.27-3.77q.01-9.44-.01-18.88 0-.68-.68-.68h-6.77q-.23 0-.33-.21-1.6-3.17.14-6.12a1.34 1.32-74.3 0 1 1.14-.65l22.46-.03q.48 0 .68.42 1.53 3.14-.27 5.95a1.37 1.36 16.1 0 1 -1.15.63l-5.96.01q-.5.01-.5.5z"/><path d="m232.56 351.67q-1.53 5.52-3.36 11.06-.47 1.41-1.78 1.59c-3.84.52-6.1.9-7.5-3.4q-1.55-4.75-3.04-9.52a.24.24 0 0 0 -.47.06l-.53 18.32q-.02.96-.95 1.2-2.12.56-4.86.08c-3.24-.55-2.66-2.72-2.5-5.66q.62-11.21 1.24-22.42.03-.53.45-.86c3.21-2.54 10.09-2.62 11.74 2.17q1.95 5.66 3.48 11.26a.3.3 0 0 0 .57.01l4.31-13.69q.14-.44.56-.62c2.74-1.13 9.77-1.72 10.26 2.81q.54 5.02 1.91 21.13.26 2.99.14 4.96a.82.8-6.7 0 1 -.59.73c-3.25.89-7.67 1.18-7.95-3.53q-.47-7.88-.46-15.58a.34.34 0 0 0 -.67-.1z"/><path d="m290.75 348v22.39a.65.65 0 0 1 -.64.65l-5.51.06a2.57 2.57 0 0 1 -2.6-2.57v-20.41q0-.62-.63-.62h-6.67q-.33 0-.49-.3-1.62-3.15.15-6.03a1.41 1.4 15.6 0 1 1.2-.67h22.46q.42 0 .6.37 1.63 3.27-.41 6.11a1.24 1.24 0 0 1 -1 .51l-5.96.01q-.5.01-.5.5z"/><path d="m312 348.01v3.49q0 .75.75.75h10.02q.54 0 .78.48 1.5 2.9-.33 5.56a1.32 1.3-73.3 0 1 -1.04.57l-9.59.2a.61.6-1 0 0 -.59.6v3.84q0 .75.75.75h11.77q.43 0 .61.39 1.45 3.02-.22 5.81a1.13 1.13 0 0 1 -.97.55h-16.21a4.18 4.18 0 0 1 -4.18-4.14q-.12-10.75-.05-21.35c.02-3.36 1.89-4.68 5.17-4.82q7.76-.33 15.53-.15.53.01.76.49c4.19 8.55-8.73 6.49-12.43 6.45q-.53 0-.53.53z"/></g><ellipse fill="#ffe3cf" rx="9.18" ry="6.92" transform="matrix(-.00349065 .99999391 -.99999391 -.00349065 186.92 355.76)"/><path d="m340 347.44a.68.68 0 0 1 .68-.68l2.03.01a4.55 3.59.2 0 1 4.54 3.6v.54a4.55 3.59.2 0 1 -4.56 3.58l-2.03-.01a.68.68 0 0 1 -.68-.68z" fill="#ffe3cf"/></svg>