<?xml version="1.0" encoding="UTF-8" standalone="no"?>
<!DOCTYPE svg PUBLIC "-//W3C//DTD SVG 1.1//EN" "http://www.w3.org/Graphics/SVG/1.1/DTD/svg11.dtd">
<svg xmlns="http://www.w3.org/2000/svg" version="1.1" viewBox="0.00 0.00 380.00 100.00">
<path fill="#000000" d="
  M 14.53 45.71
  C 11.10 45.55 6.23 47.32 6.25 42.29
  Q 6.26 37.76 6.25 33.23
  A 1.97 1.97 0.0 0 1 8.22 31.25
  L 14.24 31.25
  A 0.80 0.80 0.0 0 0 15.04 30.45
  L 15.02 17.36
  A 2.12 2.11 -0.0 0 1 17.14 15.25
  L 31.75 15.25
  A 2.50 2.50 0.0 0 1 34.25 17.75
  L 34.25 30.50
  A 0.75 0.75 0.0 0 0 35.00 31.25
  L 44.88 31.25
  A 2.13 2.12 90.0 0 1 47.00 33.38
  L 47.00 42.75
  Q 47.00 45.75 44.00 45.75
  L 34.76 45.75
  A 0.50 0.49 -89.4 0 0 34.27 46.24
  Q 34.22 50.08 34.22 53.79
  C 34.24 61.42 40.62 58.75 45.69 59.12
  A 2.06 2.06 0.0 0 1 47.60 61.06
  Q 47.93 66.87 47.63 72.07
  Q 47.52 74.04 45.81 74.20
  Q 39.50 74.80 33.24 74.29
  C 14.94 72.82 14.67 62.02 15.11 46.34
  A 0.61 0.61 0.0 0 0 14.53 45.71
  Z"
/>
<path fill="#545454" d="
  M 262.65 31.05
  L 272.77 31.05
  A 2.23 2.22 -0.0 0 1 275.00 33.27
  L 275.00 43.25
  A 2.50 2.50 0.0 0 1 272.50 45.75
  L 263.03 45.75
  Q 262.24 45.75 262.24 46.53
  L 262.25 56.00
  A 3.00 3.00 0.0 0 0 265.21 58.99
  C 267.97 59.02 275.34 57.50 275.55 61.81
  C 275.74 65.71 277.14 74.65 272.97 74.51
  C 266.94 74.31 261.58 74.75 256.27 73.71
  C 242.22 70.96 242.79 58.46 243.05 46.31
  Q 243.06 45.75 242.50 45.75
  L 236.50 45.75
  A 2.25 2.25 0.0 0 1 234.25 43.50
  L 234.25 33.03
  A 1.97 1.96 -89.9 0 1 236.22 31.06
  L 242.35 31.10
  A 0.70 0.69 -0.4 0 0 243.05 30.40
  L 242.98 18.02
  Q 242.96 15.25 245.73 15.25
  L 260.00 15.25
  A 2.25 2.25 0.0 0 1 262.25 17.50
  L 262.25 30.65
  Q 262.25 31.05 262.65 31.05
  Z"
/>
<path fill="#545454" d="
  M 93.81 35.44
  C 100.81 40.20 101.45 49.60 100.53 58.27
  C 98.64 75.98 76.14 78.01 63.30 72.93
  C 52.91 68.82 51.42 57.94 52.43 48.25
  C 54.54 28.11 80.77 26.57 93.81 35.44
  Z
  M 80.21 47.22
  A 3.49 3.49 0.0 0 0 76.72 43.73
  L 76.28 43.73
  A 3.49 3.49 0.0 0 0 72.79 47.22
  L 72.79 58.48
  A 3.49 3.49 0.0 0 0 76.28 61.97
  L 76.72 61.97
  A 3.49 3.49 0.0 0 0 80.21 58.48
  L 80.21 47.22
  Z"
/>
<path fill="#545454" d="
  M 126.50 35.46
  C 133.01 29.15 145.41 27.53 150.43 36.69
  Q 150.73 37.23 151.11 36.75
  C 159.40 26.34 174.97 28.97 178.13 42.17
  Q 178.68 44.49 178.72 49.02
  Q 178.81 60.86 178.73 72.32
  A 2.20 2.20 0.0 0 1 176.53 74.50
  L 161.98 74.50
  A 2.23 2.23 0.0 0 1 159.75 72.27
  Q 159.76 61.18 159.73 49.51
  C 159.72 43.93 153.06 44.01 153.04 48.82
  Q 152.98 60.82 153.00 72.27
  A 2.22 2.22 0.0 0 1 150.78 74.50
  L 136.00 74.50
  A 2.09 2.08 89.1 0 1 133.92 72.47
  Q 133.61 60.88 133.61 48.76
  C 133.61 43.66 127.30 44.20 127.28 49.07
  Q 127.22 60.53 127.26 71.98
  A 2.52 2.52 0.0 0 1 124.74 74.50
  L 110.00 74.50
  A 2.25 2.25 0.0 0 1 107.75 72.25
  L 107.75 33.27
  A 2.13 2.13 0.0 0 1 109.81 31.14
  Q 116.46 30.90 122.30 30.97
  Q 126.52 31.03 125.92 35.17
  Q 125.78 36.17 126.50 35.46
  Z"
/>
<path fill="#545454" d="
  M 209.09 60.73
  C 201.46 57.66 190.45 57.94 186.85 49.39
  Q 184.33 43.42 188.09 38.08
  C 193.59 30.25 205.91 29.30 214.67 31.10
  C 220.18 32.24 227.98 36.06 228.98 42.38
  A 1.84 1.83 85.6 0 1 227.17 44.50
  Q 220.68 44.51 213.89 44.49
  C 211.51 44.49 210.04 43.36 208.17 42.18
  A 2.04 2.03 -51.9 0 0 205.60 42.50
  C 204.64 43.52 205.67 44.93 206.86 45.28
  Q 211.83 46.75 216.98 47.53
  C 232.97 49.95 236.50 69.25 219.32 73.81
  Q 207.53 76.95 196.02 73.73
  C 191.61 72.50 184.91 68.10 185.27 62.87
  A 1.74 1.73 -88.1 0 1 187.00 61.25
  L 202.26 61.25
  A 1.62 1.57 60.9 0 1 203.13 61.51
  C 204.67 62.50 207.71 64.60 209.42 63.37
  A 1.52 1.51 38.0 0 0 209.09 60.73
  Z"
/>
<path fill="#545454" d="
  M 280.94 46.19
  C 282.71 37.32 291.07 31.86 299.51 30.74
  C 316.38 28.52 329.56 37.71 327.53 56.12
  A 1.83 1.83 0.0 0 1 325.71 57.75
  L 301.47 57.75
  Q 300.90 57.75 300.82 58.31
  C 300.47 60.84 302.66 65.25 305.75 62.43
  C 309.28 59.21 320.23 60.47 324.96 60.52
  A 1.83 1.82 -87.5 0 1 326.75 62.48
  C 326.24 69.31 316.37 73.82 310.50 74.75
  C 290.80 77.85 276.73 67.32 280.94 46.19
  Z
  M 301.09 47.25
  L 307.07 47.25
  A 0.34 0.34 0.0 0 0 307.41 46.91
  L 307.41 46.39
  A 4.40 2.93 -90.0 0 0 304.48 41.99
  L 303.68 41.99
  A 4.40 2.93 90.0 0 0 300.75 46.39
  L 300.75 46.91
  A 0.34 0.34 0.0 0 0 301.09 47.25
  Z"
/>
<path fill="#545454" d="
  M 353.53 35.80
  Q 360.70 30.53 369.67 31.01
  Q 372.36 31.16 372.40 33.74
  Q 372.50 40.04 372.52 46.27
  A 2.37 2.37 0.0 0 1 370.18 48.64
  L 358.57 48.80
  A 4.13 4.12 89.6 0 0 354.50 52.93
  L 354.50 72.13
  A 2.38 2.37 0.0 0 1 352.12 74.50
  L 336.50 74.50
  A 2.50 2.50 0.0 0 1 334.00 72.00
  L 334.00 33.91
  Q 334.00 31.00 336.91 31.01
  L 351.04 31.04
  Q 351.61 31.05 352.03 31.43
  Q 353.86 33.08 353.00 35.41
  Q 352.61 36.47 353.53 35.80
  Z"
/>
</svg>
